<?xml version="1.0" encoding="UTF-8"?>
<svg id="Layer_1" data-name="Layer 1" xmlns="http://www.w3.org/2000/svg" viewBox="0 0 152.16 152.16">
  <defs>
    <style>
      .cls-1, .cls-2 {
        stroke-width: 0px;
      }

      .cls-2 {
        fill: #fff;
      }
    </style>
  </defs>
  <path class="cls-2" d="m152.16,152.16c-50.72,0-101.44,0-152.16,0C0,101.44,0,50.72,0,0c50.72,0,101.44,0,152.16,0,0,50.72,0,101.44,0,152.16Zm-74.2-6.71c8.31,0,16.61.03,24.92-.04.89,0,1.91-.33,2.63-.85,8.71-6.26,17.39-12.57,26.04-18.93.68-.5,1.26-1.36,1.52-2.17,5.42-16.85,10.79-33.71,16.12-50.58.25-.78.25-1.77,0-2.54-3.39-10.37-6.83-20.73-10.32-31.07-.26-.76-.85-1.55-1.51-2.03-14.56-10.42-29.14-20.82-43.76-31.16-.82-.58-1.97-.95-2.97-.96-10.1-.07-20.21-.02-30.31-.06-1.39,0-2.53.39-3.63,1.22-14.2,10.61-28.43,21.19-42.63,31.82-.75.56-1.49,1.4-1.79,2.26-3.41,9.86-6.75,19.73-10.03,29.63-.3.91-.3,2.09,0,2.99,5.5,16.74,11.08,33.46,16.6,50.19.33,1.01.88,1.72,1.76,2.29,9.88,6.37,19.75,12.78,29.65,19.12.82.52,1.92.83,2.9.83,8.27.06,16.53.04,24.8.04Z"/>
  <path class="cls-1" d="m77.96,145.45c-8.27,0-16.53.03-24.8-.04-.97,0-2.08-.31-2.9-.83-9.91-6.34-19.77-12.75-29.65-19.12-.88-.57-1.43-1.27-1.76-2.29-5.53-16.73-11.1-33.45-16.6-50.19-.3-.91-.29-2.09,0-2.99,3.28-9.9,6.62-19.78,10.03-29.63.3-.86,1.04-1.7,1.79-2.26,14.19-10.63,28.42-21.2,42.63-31.82,1.11-.83,2.24-1.22,3.63-1.22,10.1.04,20.21,0,30.31.06,1,0,2.15.38,2.97.96,14.62,10.34,29.2,20.74,43.76,31.16.66.47,1.25,1.26,1.51,2.03,3.49,10.34,6.93,20.7,10.32,31.07.25.77.24,1.76,0,2.54-5.33,16.87-10.71,33.73-16.12,50.58-.26.81-.84,1.67-1.52,2.17-8.65,6.36-17.33,12.67-26.04,18.93-.72.52-1.74.84-2.63.85-8.31.06-16.61.04-24.92.04Zm-2.33-44.37s0,0,0,0c5.63,0,11.26.01,16.89-.04.35,0,.9-.45,1.02-.81,3.52-10.64,7-21.29,10.5-31.94.22-.67.09-1.02-.51-1.46-4.58-3.28-9.11-6.62-13.66-9.94-4.43-3.23-8.86-6.46-13.3-9.68-.53-.39-.99-.59-1.67-.09-8.99,6.58-18.01,13.12-27.03,19.66-.6.44-.79.84-.53,1.59,1.03,2.96,1.98,5.94,2.94,8.93,2.44,7.57,4.87,15.15,7.31,22.72.18.55.26,1.08,1.14,1.07,5.63-.05,11.26-.03,16.89-.03Zm-47.25,24.25c-.06.11-.11.22-.17.32.29.23.57.47.88.67,7.54,4.89,15.07,9.79,22.63,14.65.53.34,1.25.54,1.89.54,15.85.03,31.7.01,47.55.05.97,0,1.38-.3,1.68-1.21,2.74-8.51,5.52-17.01,8.29-25.51,3.62-11.09,7.23-22.17,10.85-33.26.21-.66.32-1.16-.43-1.69-4.41-3.14-8.77-6.35-13.15-9.53-.23-.17-.52-.25-.82-.39-.12.3-.19.49-.26.67-5.67,17.34-11.35,34.67-17.02,52.01-.83,2.55-1.01,2.67-3.74,2.67-18.92,0-37.85,0-56.77,0h-1.42ZM14.49,47.01c-.1,0-.2,0-.3,0-.17.36-.36.72-.49,1.09-2.33,6.84-4.65,13.68-6.96,20.53-.5,1.49-.94,2.87-.35,4.58,3.47,10.16,6.78,20.37,10.15,30.57,1.94,5.89,3.89,11.77,5.84,17.66h64.28c1.78-5.47,3.54-10.9,5.36-16.47-.73,0-1.2,0-1.68,0-18.04,0-36.09,0-54.13,0-1.62,0-2.16-.39-2.69-1.95-1.9-5.55-3.81-11.09-5.69-16.65-3.78-11.2-7.53-22.41-11.31-33.61-.65-1.92-1.34-3.83-2.01-5.74Zm93.18,91.14c.71-.42,1.16-.65,1.55-.94,6.46-4.7,12.92-9.4,19.35-14.15.5-.37.92-1,1.11-1.6,2.82-8.75,5.59-17.51,8.38-26.26,2.3-7.22,4.6-14.44,6.94-21.65.29-.89.18-1.42-.63-1.98-2.28-1.59-4.49-3.27-6.74-4.92-7.63-5.59-15.27-11.18-22.91-16.76-6.94-5.07-13.91-10.1-20.83-15.21-.81-.6-1.33-.44-1.99.05-2.92,2.14-5.85,4.26-8.76,6.4-1.36,1-2.7,2.02-4.14,3.1.45.37.74.64,1.06.87,9.62,6.99,19.25,13.98,28.87,20.97,5.39,3.92,10.79,7.83,16.18,11.75,1.44,1.05,1.58,1.56,1.03,3.24-1.72,5.29-3.44,10.58-5.16,15.87-4.31,13.23-8.62,26.45-12.93,39.68-.13.4-.2.81-.38,1.53Zm35.6-72.14c.08-.09.17-.18.25-.27-.14-.49-.27-.98-.43-1.47-2.07-6.25-4.3-12.45-6.15-18.76-1.02-3.49-2.37-6.47-5.85-8.05-.28-.13-.51-.38-.77-.56-5.68-4.06-11.36-8.13-17.05-12.18-6.9-4.91-13.81-9.81-20.7-14.73-.63-.45-1.06-.43-1.68.04-2.95,2.24-5.94,4.42-8.91,6.62-7.03,5.2-14.06,10.41-21.09,15.62-6.49,4.81-12.98,9.61-19.48,14.41-.62.45-.87.94-.61,1.72,1.64,4.96,3.26,9.93,4.93,15.04.38-.19.74-.31,1.04-.52,7.28-5.27,14.54-10.54,21.81-15.81,7.56-5.49,15.12-10.98,22.68-16.46,1.56-1.13,1.93-1.1,3.38-.03,4.35,3.2,8.7,6.4,13.06,9.58,11.17,8.17,22.34,16.34,33.52,24.5.66.48,1.36.89,2.04,1.33Zm-89.43,35.04c-.14-.57-.23-1.03-.37-1.47-2.68-8.24-5.36-16.48-8.04-24.72-2.94-9.06-5.86-18.13-8.83-27.18-.41-1.24-.03-2.08.93-2.79,4.09-3.03,8.17-6.08,12.26-9.1,11.62-8.6,23.25-17.2,34.88-25.8.25-.19.45-.46.81-.84-.45-.05-.64-.09-.83-.09-8.15,0-16.29-.01-24.44.02-.5,0-1.08.26-1.49.56-13.6,10.12-27.18,20.27-40.81,30.36-1.1.82-1.28,1.49-.85,2.76,6.47,18.91,12.9,37.83,19.29,56.77.41,1.21.86,1.61,2.2,1.58,5.02-.12,10.05-.05,15.29-.05Z"/>
  <path class="cls-2" d="m75.62,101.07c-5.63,0-11.26-.02-16.89.03-.88,0-.96-.52-1.14-1.07-2.44-7.57-4.87-15.15-7.31-22.72-.96-2.98-1.92-5.97-2.94-8.93-.26-.76-.08-1.16.53-1.59,9.02-6.54,18.04-13.08,27.03-19.66.69-.5,1.14-.3,1.67.09,4.43,3.23,8.87,6.45,13.3,9.68,4.55,3.32,9.09,6.65,13.66,9.94.6.43.73.79.51,1.46-3.5,10.65-6.98,21.3-10.5,31.94-.12.35-.67.81-1.02.81-5.63.05-11.26.04-16.89.04,0,0,0,0,0,0Z"/>
  <path class="cls-2" d="m28.37,125.32h1.42c18.92,0,37.85,0,56.77,0,2.73,0,2.9-.13,3.74-2.67,5.67-17.34,11.35-34.67,17.02-52.01.06-.19.14-.37.26-.67.3.14.59.23.82.39,4.38,3.18,8.74,6.39,13.15,9.53.75.53.64,1.04.43,1.69-3.62,11.08-7.24,22.17-10.85,33.26-2.77,8.5-5.56,17-8.29,25.51-.29.91-.71,1.21-1.68,1.21-15.85-.03-31.7-.02-47.55-.05-.63,0-1.35-.2-1.89-.54-7.56-4.86-15.09-9.76-22.63-14.65-.31-.2-.59-.45-.88-.67.06-.11.11-.22.17-.32Z"/>
  <path class="cls-2" d="m14.49,47.01c.67,1.91,1.36,3.82,2.01,5.74,3.77,11.2,7.53,22.41,11.31,33.61,1.88,5.56,3.79,11.1,5.69,16.65.53,1.56,1.07,1.95,2.69,1.95,18.04,0,36.09,0,54.13,0,.47,0,.95,0,1.68,0-1.81,5.57-3.58,11-5.36,16.47H22.36c-1.95-5.88-3.89-11.77-5.84-17.66-3.37-10.19-6.68-20.41-10.15-30.57-.58-1.71-.15-3.09.35-4.58,2.31-6.85,4.64-13.69,6.96-20.53.13-.38.33-.73.49-1.09.1,0,.2,0,.3,0Z"/>
  <path class="cls-2" d="m107.66,138.15c.18-.72.25-1.14.38-1.53,4.31-13.23,8.62-26.45,12.93-39.68,1.72-5.29,3.44-10.58,5.16-15.87.55-1.68.41-2.19-1.03-3.24-5.39-3.92-10.78-7.83-16.18-11.75-9.63-6.99-19.25-13.98-28.87-20.97-.32-.23-.61-.5-1.06-.87,1.44-1.08,2.78-2.1,4.14-3.1,2.92-2.14,5.85-4.26,8.76-6.4.67-.49,1.18-.65,1.99-.05,6.92,5.11,13.88,10.14,20.83,15.21,7.64,5.58,15.27,11.17,22.91,16.76,2.24,1.64,4.46,3.33,6.74,4.92.81.56.92,1.09.63,1.98-2.34,7.21-4.64,14.43-6.94,21.65-2.79,8.75-5.56,17.52-8.38,26.26-.19.6-.61,1.23-1.11,1.6-6.43,4.74-12.89,9.44-19.35,14.15-.4.29-.85.51-1.55.94Z"/>
  <path class="cls-2" d="m143.27,66c-.68-.44-1.39-.85-2.04-1.33-11.18-8.16-22.35-16.33-33.52-24.5-4.36-3.19-8.71-6.39-13.06-9.58-1.45-1.06-1.82-1.09-3.38.03-7.57,5.48-15.12,10.97-22.68,16.46-7.27,5.27-14.54,10.55-21.81,15.81-.29.21-.66.33-1.04.52-1.67-5.12-3.28-10.08-4.93-15.04-.26-.78,0-1.26.61-1.72,6.5-4.8,12.99-9.6,19.48-14.41,7.03-5.2,14.06-10.41,21.09-15.62,2.97-2.2,5.97-4.38,8.91-6.62.62-.47,1.05-.49,1.68-.04,6.89,4.92,13.8,9.82,20.7,14.73,5.69,4.05,11.37,8.12,17.05,12.18.26.18.48.43.77.56,3.48,1.58,4.83,4.56,5.85,8.05,1.85,6.31,4.08,12.51,6.15,18.76.16.48.29.98.43,1.47-.08.09-.17.18-.25.27Z"/>
  <path class="cls-2" d="m53.84,101.04c-5.24,0-10.27-.07-15.29.05-1.34.03-1.79-.36-2.2-1.58-6.39-18.94-12.82-37.86-19.29-56.77-.43-1.27-.25-1.94.85-2.76,13.62-10.09,27.2-20.24,40.81-30.36.41-.31.99-.56,1.49-.56,8.14-.03,16.29-.03,24.44-.02.19,0,.38.04.83.09-.36.38-.55.65-.81.84-11.62,8.6-23.25,17.2-34.88,25.8-4.09,3.03-8.17,6.07-12.26,9.1-.96.71-1.34,1.55-.93,2.79,2.97,9.05,5.89,18.12,8.83,27.18,2.68,8.24,5.36,16.48,8.04,24.72.14.44.23.9.37,1.47Z"/>
</svg>